<mxfile host="Electron" agent="Mozilla/5.0 (Windows NT 10.0; Win64; x64) AppleWebKit/537.36 (KHTML, like Gecko) draw.io/24.7.8 Chrome/128.0.6613.36 Electron/32.0.1 Safari/537.36" version="24.7.8" pages="2">
  <diagram name="logo" id="cbGklcPTGKpIFUWEdVbL">
    <mxGraphModel dx="1728" dy="1004" grid="1" gridSize="10" guides="1" tooltips="1" connect="1" arrows="1" fold="1" page="1" pageScale="1" pageWidth="850" pageHeight="1100" math="0" shadow="0">
      <root>
        <mxCell id="0" />
        <mxCell id="1" parent="0" />
        <mxCell id="Qk9gcTsqjabojnuYMupm-3" value="" style="shape=hexagon;perimeter=hexagonPerimeter2;whiteSpace=wrap;html=1;fixedSize=1;fillColor=#ffffff;strokeColor=#009900;strokeWidth=4;shadow=1;" vertex="1" parent="1">
          <mxGeometry x="360" y="510" width="210" height="190" as="geometry" />
        </mxCell>
        <mxCell id="Qk9gcTsqjabojnuYMupm-1" value="" style="sketch=0;outlineConnect=0;gradientColor=#3b9009;fillColor=#d5e8d4;strokeColor=#3d3d3d;dashed=0;verticalLabelPosition=bottom;verticalAlign=top;align=center;html=1;fontSize=12;fontStyle=0;aspect=fixed;pointerEvents=1;shape=mxgraph.aws4.iot_analytics_pipeline;rotation=0;strokeWidth=3;perimeterSpacing=2;" vertex="1" parent="1">
          <mxGeometry x="382.5" y="590" width="167.14" height="90" as="geometry" />
        </mxCell>
        <mxCell id="Qk9gcTsqjabojnuYMupm-5" value="&lt;font size=&quot;1&quot; color=&quot;#000000&quot; style=&quot;&quot;&gt;&lt;b style=&quot;font-size: 18px;&quot;&gt;ESCAP training on&lt;/b&gt;&lt;b style=&quot;font-size: 24px;&quot;&gt; &lt;br&gt;RAP&lt;/b&gt;&lt;/font&gt;" style="text;html=1;align=center;verticalAlign=middle;whiteSpace=wrap;rounded=0;" vertex="1" parent="1">
          <mxGeometry x="382.5" y="530" width="165" height="60" as="geometry" />
        </mxCell>
      </root>
    </mxGraphModel>
  </diagram>
  <diagram name="favicon" id="FbWy8J7t2wb4vxiVW0By">
    <mxGraphModel dx="2074" dy="1205" grid="1" gridSize="10" guides="1" tooltips="1" connect="1" arrows="1" fold="1" page="1" pageScale="1" pageWidth="850" pageHeight="1100" math="0" shadow="0">
      <root>
        <mxCell id="6r9b5jSFEPyMv10zsVcp-0" />
        <mxCell id="6r9b5jSFEPyMv10zsVcp-1" parent="6r9b5jSFEPyMv10zsVcp-0" />
        <mxCell id="6r9b5jSFEPyMv10zsVcp-3" value="" style="sketch=0;outlineConnect=0;gradientColor=#3b9009;fillColor=#d5e8d4;strokeColor=#3d3d3d;dashed=0;verticalLabelPosition=bottom;verticalAlign=top;align=center;html=1;fontSize=12;fontStyle=0;aspect=fixed;pointerEvents=1;shape=mxgraph.aws4.iot_analytics_pipeline;rotation=0;strokeWidth=3;perimeterSpacing=2;" vertex="1" parent="6r9b5jSFEPyMv10zsVcp-1">
          <mxGeometry x="382.5" y="590" width="137.5" height="74.04" as="geometry" />
        </mxCell>
      </root>
    </mxGraphModel>
  </diagram>
</mxfile>
